<?xml version="1.0" encoding="UTF-8" standalone="no"?>
<!-- Generator: Adobe Illustrator 24.1.2, SVG Export Plug-In . SVG Version: 6.00 Build 0)  -->

<svg
   version="1.1"
   id="Capa_1"
   x="0px"
   y="0px"
   viewBox="0 0 384 341.3"
   style="enable-background:new 0 0 384 341.3;"
   xml:space="preserve"
   sodipodi:docname="menu.svg"
   inkscape:version="1.2.1 (9c6d41e4, 2022-07-14)"
   xmlns:inkscape="http://www.inkscape.org/namespaces/inkscape"
   xmlns:sodipodi="http://sodipodi.sourceforge.net/DTD/sodipodi-0.dtd"
   xmlns="http://www.w3.org/2000/svg"
   xmlns:svg="http://www.w3.org/2000/svg"><defs
   id="defs18" /><sodipodi:namedview
   id="namedview16"
   pagecolor="#505050"
   bordercolor="#eeeeee"
   borderopacity="1"
   inkscape:showpageshadow="0"
   inkscape:pageopacity="0"
   inkscape:pagecheckerboard="0"
   inkscape:deskcolor="#505050"
   showgrid="false"
   inkscape:zoom="0.6914738"
   inkscape:cx="192.34279"
   inkscape:cy="173.54237"
   inkscape:window-width="1367"
   inkscape:window-height="456"
   inkscape:window-x="0"
   inkscape:window-y="23"
   inkscape:window-maximized="0"
   inkscape:current-layer="Capa_1" />
<path
   d="M362.7,0H21.3C9.6,0,0,9.6,0,21.3V64c0,11.8,9.6,21.3,21.3,21.3h341.3c11.8,0,21.3-9.6,21.3-21.3V21.3  C384,9.6,374.4,0,362.7,0z"
   id="path9"
   style="fill:#ffffff" />
<path
   d="M362.7,128H21.3C9.6,128,0,137.6,0,149.3V192c0,11.8,9.6,21.3,21.3,21.3h341.3c11.8,0,21.3-9.6,21.3-21.3v-42.7  C384,137.6,374.4,128,362.7,128z"
   id="path11"
   style="fill:#ffffff" />
<path
   d="M362.7,256H21.3C9.6,256,0,265.6,0,277.3V320c0,11.8,9.6,21.3,21.3,21.3h341.3c11.8,0,21.3-9.6,21.3-21.3v-42.7  C384,265.6,374.4,256,362.7,256z"
   id="path13"
   style="fill:#ffffff" />
</svg>
